<svg width="179" height="99" viewBox="0 0 179 99" fill="none" xmlns="http://www.w3.org/2000/svg">
<rect y="7.00024" width="179" height="91.9997" rx="45.9998" fill="#F87C0A"/>
<rect x="7.14404" y="14.9998" width="163.684" height="76.9997" rx="38.4999" fill="black" stroke="white" stroke-width="4"/>
<path d="M142.941 62.7148C142.941 61.8008 142.66 61.1914 142.098 60.8867C141.559 60.582 140.762 60.4297 139.707 60.4297H123.395V57.8984H139.707C143.551 57.8984 145.473 59.5039 145.473 62.7148C145.473 64.5195 144.945 65.8203 143.891 66.6172C142.836 67.4141 141.441 67.8125 139.707 67.8125H123.395V65.2812H139.707C141.863 65.2812 142.941 64.4258 142.941 62.7148ZM121.988 83H119.457V39.9688H139.707C141.301 39.9688 142.66 40.4609 143.785 41.4453C144.91 42.4062 145.473 43.6133 145.473 45.0664C145.473 46.9883 144.945 48.3828 143.891 49.25C142.836 50.0938 141.441 50.5156 139.707 50.5156H123.395V47.9844H139.707C141.863 47.9844 142.941 47.0117 142.941 45.0664C142.941 44.2695 142.637 43.6484 142.027 43.2031C141.418 42.7344 140.645 42.5 139.707 42.5H121.988V83ZM123.395 53.0469H139.707C142.027 53.0469 143.984 52.3555 145.578 50.9727C147.195 49.5664 148.004 47.5977 148.004 45.0664C148.004 43.0273 147.16 41.2461 145.473 39.7227C143.809 38.1992 141.887 37.4375 139.707 37.4375H116.926V83H114.395V34.9062H139.707C142.59 34.9062 145.109 35.9258 147.266 37.9648C149.445 39.9805 150.535 42.3477 150.535 45.0664C150.535 47.1992 150.031 49.0625 149.023 50.6562C148.039 52.25 146.703 53.4805 145.016 54.3477C148.695 55.6602 150.535 58.332 150.535 62.3633C150.535 65.5508 149.48 68.1055 147.371 70.0273C145.262 71.9258 142.707 72.875 139.707 72.875H123.395V70.3438H139.707C142.027 70.3438 143.984 69.6523 145.578 68.2695C147.195 66.8633 148.004 64.8945 148.004 62.3633C148.004 60.6523 147.395 59.1406 146.176 57.8281C144.957 56.5156 143.164 55.7539 140.797 55.543C140.562 55.5664 140.199 55.5781 139.707 55.5781H123.395V53.0469ZM155.598 45.0664C155.598 48.3477 154.438 51.3125 152.117 53.9609C154.438 56.5391 155.598 59.3398 155.598 62.3633C155.598 65.293 154.859 67.9648 153.383 70.3789C151.93 72.7695 149.984 74.6328 147.547 75.9688C145.133 77.2812 142.52 77.9375 139.707 77.9375H123.395V75.4062H139.707C143.363 75.4062 146.504 74.1875 149.129 71.75C151.754 69.2891 153.066 66.1602 153.066 62.3633C153.066 61.0039 152.715 59.5039 152.012 57.8633C151.332 56.1992 150.383 54.9336 149.164 54.0664C151.766 51.6289 153.066 48.6289 153.066 45.0664C153.066 41.6445 151.73 38.6797 149.059 36.1719C146.387 33.6406 143.27 32.375 139.707 32.375H111.863V83H109.332V29.8438H139.707C142.496 29.8438 145.109 30.5352 147.547 31.918C150.008 33.2773 151.965 35.1406 153.418 37.5078C154.871 39.8516 155.598 42.3711 155.598 45.0664ZM155 54.1016C157.086 51.3125 158.129 48.3008 158.129 45.0664C158.129 41.9023 157.285 38.9609 155.598 36.2422C153.934 33.5 151.684 31.332 148.848 29.7383C146.012 28.1211 142.965 27.3125 139.707 27.3125H106.801V83H104.27V24.7812H139.707C143.41 24.7812 146.867 25.6953 150.078 27.5234C153.312 29.3516 155.879 31.8359 157.777 34.9766C159.699 38.0938 160.66 41.457 160.66 45.0664C160.66 48.5117 159.688 51.5352 157.742 54.1367C159.688 56.832 160.66 59.5742 160.66 62.3633C160.66 65.5039 160.098 68.3867 158.973 71.0117C157.848 73.6133 156.324 75.7812 154.402 77.5156C152.504 79.25 150.289 80.5977 147.758 81.5586C145.227 82.5195 142.543 83 139.707 83H123.395V80.4688H139.707C142.168 80.4688 144.523 80.0117 146.773 79.0977C149.023 78.1602 150.98 76.8945 152.645 75.3008C154.309 73.707 155.633 71.7852 156.617 69.5352C157.625 67.2852 158.129 64.8945 158.129 62.3633C158.129 61.2383 157.859 59.8906 157.32 58.3203C156.805 56.7266 156.031 55.3203 155 54.1016Z" fill="#F87C0A"/>
<path d="M62.7383 67.8125V39.9688C62.7383 39.9688 56.9844 39.9688 45.4766 39.9688C42.6875 39.9688 40.2969 41.3398 38.3047 44.082C36.2891 46.8008 35.2812 50.0703 35.2812 53.8906C35.2812 57.7344 36.2891 61.0156 38.3047 63.7344C40.2969 66.4531 42.6875 67.8125 45.4766 67.8125H62.7383ZM60.207 65.2812H45.4766C43.3906 65.2812 41.6094 64.168 40.1328 61.9414C38.6328 59.7148 37.8828 57.0312 37.8828 53.8906C37.8828 50.7266 38.6328 48.043 40.1328 45.8398C41.6094 43.6133 43.3906 42.5 45.4766 42.5H60.207V65.2812ZM65.2695 70.3438H45.4766C41.9844 70.3438 38.9844 68.7383 36.4766 65.5273C33.9453 62.293 32.6797 58.4141 32.6797 53.8906C32.6797 50.9141 33.2656 48.1602 34.4375 45.6289C35.5859 43.0977 37.1445 41.1055 39.1133 39.6523C41.0586 38.1758 43.1797 37.4375 45.4766 37.4375H65.2695V70.3438ZM67.8008 72.875V34.9062H45.4766C42.7344 34.9062 40.1797 35.75 37.8125 37.4375C35.4453 39.125 33.5703 41.4336 32.1875 44.3633C30.7812 47.2695 30.0781 50.4453 30.0781 53.8906C30.0781 57.3125 30.7812 60.4883 32.1875 63.418C33.5703 66.3477 35.4453 68.6562 37.8125 70.3438C40.1797 72.0312 42.7344 72.875 45.4766 72.875H67.8008ZM70.332 75.4062H45.4766C42.2656 75.4062 39.2891 74.4453 36.5469 72.5234C33.7812 70.6016 31.5781 67.9883 29.9375 64.6836C28.2969 61.3789 27.4766 57.7812 27.4766 53.8906C27.4766 50.0234 28.2969 46.4375 29.9375 43.1328C31.5781 39.8047 33.7812 37.1797 36.5469 35.2578C39.3125 33.3359 42.2891 32.375 45.4766 32.375H70.332V75.4062ZM72.8633 77.9375V29.8438H45.4766C41.8203 29.8438 38.4102 30.9219 35.2461 33.0781C32.082 35.2109 29.5625 38.1289 27.6875 41.832C25.8125 45.5352 24.875 49.5547 24.875 53.8906C24.875 58.2266 25.8125 62.2461 27.6875 65.9492C29.5625 69.6523 32.082 72.582 35.2461 74.7383C38.4102 76.8711 41.8203 77.9375 45.4766 77.9375H72.8633ZM75.3945 80.4688H45.4766C42.4062 80.4688 39.4414 79.7656 36.582 78.3594C33.7227 76.9531 31.25 75.0664 29.1641 72.6992C27.0781 70.332 25.4141 67.5078 24.1719 64.2266C22.9062 60.9219 22.2734 57.4766 22.2734 53.8906C22.2734 50.3047 22.9062 46.8711 24.1719 43.5898C25.4141 40.3086 27.0781 37.4844 29.1641 35.1172C31.25 32.7266 33.7227 30.8281 36.582 29.4219C39.4414 28.0156 42.4062 27.3125 45.4766 27.3125H75.3945V80.4688ZM45.4766 83H77.9258V24.7812H45.4766C40.9062 24.7812 36.6406 26.082 32.6797 28.6836C28.7188 31.2852 25.5664 34.8242 23.2227 39.3008C20.8555 43.7773 19.6719 48.6406 19.6719 53.8906C19.6719 57.8281 20.375 61.6016 21.7812 65.2109C23.1641 68.7969 25.0156 71.8906 27.3359 74.4922C29.6562 77.0938 32.4102 79.168 35.5977 80.7148C38.7617 82.2383 42.0547 83 45.4766 83Z" fill="#F87C0A"/>
<line x1="90.5" y1="23.9998" x2="90.5" y2="86.9995" stroke="#F87C0A" stroke-width="2"/>
</svg>
